HIERARCHY
ROOT hips
{
  OFFSET 0 11.86390953 0.3628582958
  CHANNELS 6 Xposition Yposition Zposition Yrotation Xrotation Zrotation
  JOINT spine
  {
    OFFSET 0 0.05383551117999996 0
    CHANNELS 3 Yrotation Xrotation Zrotation
    JOINT chest
    {
      OFFSET 0 0.6394558760401424 0
      CHANNELS 3 Yrotation Xrotation Zrotation
      JOINT neck
      {
        OFFSET 0 2.720089088562982 0
        CHANNELS 3 Yrotation Xrotation Zrotation
        JOINT head
        {
          OFFSET 0 0.37880844870545777 0
          CHANNELS 3 Yrotation Xrotation Zrotation
          JOINT rightEye
          {
            OFFSET -0.42867780714 0.7547055649100001 0.7381831347
            CHANNELS 3 Yrotation Xrotation Zrotation
            End Site
            {
              OFFSET -0.42867780714 0.7547055649100001 0.7381831347
            }
          }
          JOINT leftEye
          {
            OFFSET 0.428676479 0.7547055559999993 0.7381844503
            CHANNELS 3 Yrotation Xrotation Zrotation
            End Site
            {
              OFFSET 0.428676479 0.7547055559999993 0.7381844503
            }
          }
          JOINT jaw
          {
            OFFSET -0.18933892286100001 1.5626303011000007 1.137441874206
            CHANNELS 3 Yrotation Xrotation Zrotation
            End Site
            {
              OFFSET -0.18933892286100001 1.5626303011000007 1.137441874206
            }
          }
        }
      }
      JOINT rightShoulder
      {
        OFFSET -0.6795351508 2.0665205 0
        CHANNELS 3 Yrotation Xrotation Zrotation
        JOINT rightUpperArm
        {
          OFFSET -0.7287400483531672 0 0
          CHANNELS 3 Yrotation Xrotation Zrotation
          JOINT rightLowerArm
          {
            OFFSET -1.9872982039174532 0 0
            CHANNELS 3 Yrotation Xrotation Zrotation
            JOINT rightHand
            {
              OFFSET -2.6451847532219275 0 0
              CHANNELS 3 Yrotation Xrotation Zrotation
              JOINT rightLittleProximal
              {
                OFFSET -0.8008804099999995 -0.09592044000000044 -0.26183688629999996
                CHANNELS 3 Yrotation Xrotation Zrotation
                JOINT rightLittleIntermediate
                {
                  OFFSET -0.2473955153999997 -0.02541697026000067 0.002370178700999967
                  CHANNELS 3 Yrotation Xrotation Zrotation
                  JOINT rightLittleDistal
                  {
                    OFFSET -0.163687229200001 -0.015790700860001117 -0.0004274845300000635
                    CHANNELS 3 Yrotation Xrotation Zrotation
                    End Site
                    {
                      OFFSET -0.163687229200001 -0.015790700860001117 -0.0004274845300000635
                    }
                  }
                }
              }
              JOINT rightRingProximal
              {
                OFFSET -0.8393382799999985 -0.06223833561000025 -0.09213143500000005
                CHANNELS 3 Yrotation Xrotation Zrotation
                JOINT rightRingIntermediate
                {
                  OFFSET -0.3284497260000011 -0.03264224524000103 0.009408593183000052
                  CHANNELS 3 Yrotation Xrotation Zrotation
                  JOINT rightRingDistal
                  {
                    OFFSET -0.19447660429999902 -0.021730899850000318 0.003074347969000052
                    CHANNELS 3 Yrotation Xrotation Zrotation
                    End Site
                    {
                      OFFSET -0.19447660429999902 -0.021730899850000318 0.003074347969000052
                    }
                  }
                }
              }
              JOINT rightMiddleProximal
              {
                OFFSET -0.8473005199999989 -0.06735503500000095 0.10541820299999995
                CHANNELS 3 Yrotation Xrotation Zrotation
                JOINT rightMiddleIntermediate
                {
                  OFFSET -0.3450455799999995 -0.02481901642000084 0.019012570390000032
                  CHANNELS 3 Yrotation Xrotation Zrotation
                  JOINT rightMiddleDistal
                  {
                    OFFSET -0.23542332000000088 -0.025003910029999243 0.0075583457949999905
                    CHANNELS 3 Yrotation Xrotation Zrotation
                    End Site
                    {
                      OFFSET -0.23542332000000088 -0.025003910029999243 0.0075583457949999905
                    }
                  }
                }
              }
              JOINT rightIndexProximal
              {
                OFFSET -0.8008568281999987 -0.09897839600000169 0.29462796
                CHANNELS 3 Yrotation Xrotation Zrotation
                JOINT rightIndexIntermediate
                {
                  OFFSET -0.30524754480000016 -0.024634122809999992 0.02743375304999998
                  CHANNELS 3 Yrotation Xrotation Zrotation
                  JOINT rightIndexDistal
                  {
                    OFFSET -0.23067378950000017 -0.016876459159999913 0.008484125099999983
                    CHANNELS 3 Yrotation Xrotation Zrotation
                    End Site
                    {
                      OFFSET -0.23067378950000017 -0.016876459159999913 0.008484125099999983
                    }
                  }
                }
              }
              JOINT rightThumbProximal
              {
                OFFSET -0.25574064999999935 -0.12833189930000155 0.22385698609999993
                CHANNELS 3 Yrotation Xrotation Zrotation
                JOINT rightThumbIntermediate
                {
                  OFFSET -0.22791743260000086 -0.07103586192999978 0.27385039
                  CHANNELS 3 Yrotation Xrotation Zrotation
                  JOINT rightThumbDistal
                  {
                    OFFSET -0.13610267659999975 -0.03369390969999997 0.14246511509999996
                    CHANNELS 3 Yrotation Xrotation Zrotation
                    End Site
                    {
                      OFFSET -0.13610267659999975 -0.03369390969999997 0.14246511509999996
                    }
                  }
                }
              }
            }
          }
        }
      }
      JOINT leftShoulder
      {
        OFFSET 0.6795338396 2.0665205 0
        CHANNELS 3 Yrotation Xrotation Zrotation
        JOINT leftUpperArm
        {
          OFFSET 0.7287383950230443 0 0
          CHANNELS 3 Yrotation Xrotation Zrotation
          JOINT leftLowerArm
          {
            OFFSET 1.9872997282019604 0 0
            CHANNELS 3 Yrotation Xrotation Zrotation
            JOINT leftHand
            {
              OFFSET 2.6451820781302327 0 0
              CHANNELS 3 Yrotation Xrotation Zrotation
              JOINT leftLittleProximal
              {
                OFFSET 0.8008804099999995 -0.09592306899999814 -0.2618342639000001
                CHANNELS 3 Yrotation Xrotation Zrotation
                JOINT leftLittleIntermediate
                {
                  OFFSET 0.2473981400000007 -0.02542352681000093 0.0023609995859999455
                  CHANNELS 3 Yrotation Xrotation Zrotation
                  JOINT leftLittleDistal
                  {
                    OFFSET 0.1636846068000002 -0.015794634789999318 -0.00043272972159996703
                    CHANNELS 3 Yrotation Xrotation Zrotation
                    End Site
                    {
                      OFFSET 0.1636846068000002 -0.015794634789999318 -0.00043272972159996703
                    }
                  }
                }
              }
              JOINT leftRingProximal
              {
                OFFSET 0.8393409199999996 -0.062242267999998324 -0.0921281570000001
                CHANNELS 3 Yrotation Xrotation Zrotation
                JOINT leftRingIntermediate
                {
                  OFFSET 0.3284471036000003 -0.03264224524000103 0.009405970574000042
                  CHANNELS 3 Yrotation Xrotation Zrotation
                  JOINT leftRingDistal
                  {
                    OFFSET 0.1944779099999996 -0.021732211159998904 0.003073036670000001
                    CHANNELS 3 Yrotation Xrotation Zrotation
                    End Site
                    {
                      OFFSET 0.1944779099999996 -0.021732211159998904 0.003073036670000001
                    }
                  }
                }
              }
              JOINT leftMiddleProximal
              {
                OFFSET 0.8473005200000001 -0.06736028199999788 0.1054214809999999
                CHANNELS 3 Yrotation Xrotation Zrotation
                JOINT leftMiddleIntermediate
                {
                  OFFSET 0.3450455799999995 -0.024824261000000014 0.019013225990000007
                  CHANNELS 3 Yrotation Xrotation Zrotation
                  JOINT leftMiddleDistal
                  {
                    OFFSET 0.2354259489999998 -0.025005222000000327 0.0075590014499999705
                    CHANNELS 3 Yrotation Xrotation Zrotation
                    End Site
                    {
                      OFFSET 0.2354259489999998 -0.025005222000000327 0.0075590014499999705
                    }
                  }
                }
              }
              JOINT leftIndexProximal
              {
                OFFSET 0.8008594516999996 -0.09898495199999946 0.29463124239999994
                CHANNELS 3 Yrotation Xrotation Zrotation
                JOINT leftIndexIntermediate
                {
                  OFFSET 0.30524754480000016 -0.024632811499998963 0.02743047472
                  CHANNELS 3 Yrotation Xrotation Zrotation
                  JOINT leftIndexDistal
                  {
                    OFFSET 0.23067378950000017 -0.016876459159999913 0.008481502700000004
                    CHANNELS 3 Yrotation Xrotation Zrotation
                    End Site
                    {
                      OFFSET 0.23067378950000017 -0.016876459159999913 0.008481502700000004
                    }
                  }
                }
              }
              JOINT leftThumbProximal
              {
                OFFSET 0.25574326469999953 -0.12833321050000013 0.22385764169999997
                CHANNELS 3 Yrotation Xrotation Zrotation
                JOINT leftThumbIntermediate
                {
                  OFFSET 0.22804987480000094 -0.07138466829999968 0.273648441
                  CHANNELS 3 Yrotation Xrotation Zrotation
                  JOINT leftThumbDistal
                  {
                    OFFSET 0.13614857189999907 -0.033867001519998885 0.14238119169999996
                    CHANNELS 3 Yrotation Xrotation Zrotation
                    End Site
                    {
                      OFFSET 0.13614857189999907 -0.033867001519998885 0.14238119169999996
                    }
                  }
                }
              }
            }
          }
        }
      }
    }
  }
  JOINT rightUpperLeg
  {
    OFFSET -0.9749898906000001 -1.8495733739999998 0
    CHANNELS 3 Yrotation Xrotation Zrotation
    JOINT rightLowerLeg
    {
      OFFSET 0 -4.1566544686813165 0
      CHANNELS 3 Yrotation Xrotation Zrotation
      JOINT rightFoot
      {
        OFFSET 0.14539718599999998 -4.225553926 -0.3666210900000001
        CHANNELS 3 Yrotation Xrotation Zrotation
        JOINT rightToes
        {
          OFFSET 0.1706738473 -0.9584117400000015 1.0093348617
          CHANNELS 3 Yrotation Xrotation Zrotation
          End Site
          {
            OFFSET 0.1706738473 -0.9584117400000015 1.0093348617
          }
        }
      }
    }
  }
  JOINT leftUpperLeg
  {
    OFFSET 0.9749898906000001 -1.8495733739999998 0
    CHANNELS 3 Yrotation Xrotation Zrotation
    JOINT leftLowerLeg
    {
      OFFSET 0 -4.156653488267941 0
      CHANNELS 3 Yrotation Xrotation Zrotation
      JOINT leftFoot
      {
        OFFSET -0.14537357999999995 -4.225555399999999 -0.36661124279999996
        CHANNELS 3 Yrotation Xrotation Zrotation
        JOINT leftToes
        {
          OFFSET -0.17066467000000002 -0.9584157000000019 1.0093348617
          CHANNELS 3 Yrotation Xrotation Zrotation
          End Site
          {
            OFFSET -0.17066467000000002 -0.9584157000000019 1.0093348617
          }
        }
      }
    }
  }
}
MOTION
Frames: 4
Frame Time: 0.03333333333333333
0.08851827681064606 -0.24991683895996175 0.06056326627731323 -8.338252770938517 -5.144295832850311 -6.405222336307206 0.44274487034786114 2.908928080262409 -0.18320348681006857 0.17140204624624858 1.7708902353088376 -0.34435177997064054 -4.737330759435014 1.966148665042213 -4.56394652516566 -19.931930312600507 -3.107358193261796 -1.7747163262071424 0 0 0 0 0 0 0 0 0 -2.4699419969441267 11.939594031684738 0.49996051593931645 -39.844731344813624 -8.005010321300334 71.93722322318187 7.719370028167593 0.00670025259032353 -0.09942202281824136 18.623363103567783 28.155354207188147 -31.837599044341463 -27.3388249197329 2.3465894461749843 5.713813542605438 -0.1852901421360387 -0.038440360893489345 5.238927742424378 3.1369524339962407 0.5326223007966836 -12.057690452090947 -18.32894698078742 -0.05691721635480838 0.7458592101799506 -0.36423600437706416 0.0019157448740140558 0.004743487577102067 1.8748770684785065 -0.028560897434585505 -0.40901071080365176 -9.30407132046966 -0.5847502765333037 -10.2600970632059 -0.7172877245914363 0.03427022273989184 0.008837291626819307 0.04599658544107333 -0.0012396392095939445 -2.312890292594781 2.093598856758565 1.462821833904068 -9.69989171050643 -0.9559343948494129 0.021555018649586203 2.2162103686303154 1.597070170507987 0.036893192645022575 -4.378399127254091 17.372125141360588 8.268948091456473 -6.702573555810506 -5.909483292490948 -8.668127965537908 6.618227355539725 5.1919582385511225 -1.773559661542518 3.674778674985625 -10.548277943641043 6.094735637249534 -10.200162090004001 -32.07755414616421 16.46206273565751 -65.35343553170786 -2.45080039362917 0.0006768003453571368 0.03163905951299836 -33.76098543248769 8.476677549865803 50.220542571410995 27.631440907267287 2.3759438436249387 -5.706834700167665 0.2566388083088932 -0.004975840341118542 -5.23997332916749 -0.3514457802997935 -0.0005149763156383105 13.667135220565859 18.34754533871173 -0.056625859284893214 -0.7461726165261359 0.3388492260923636 0.001908094887049084 -0.0042662910609313175 0.08874121655348399 0.05431633712323197 -1.1337961348392607 9.244029220625714 -0.5738302736151758 10.261504913055893 0.8170795641709052 0.03429915099744424 -0.010099125911410536 -0.237943828598612 0.014045410384836853 5.948007676491865 -2.1170968622127715 1.4668460236968848 9.69978093177507 0.997211811758816 0.022230825563152853 -2.2167683903065885 -0.9260007988362198 0.060403762949680466 8.046868419743072 -17.476171535304033 8.237501505310846 6.665549291329829 6.019089544869815 -8.617576567712034 -6.591925814620253 -4.227702930234 -1.5694902925626226 -2.923905560144256 -7.704780000936264 3.3279382614496678 10.510531007938615 5.21709537573185 13.172445809058019 2.803900124706861 1.6184273176064645 -7.528989996343775 -7.549218301999097 -6.263987649885964e-7 -3.132634275493398 -0.0000013038838581126848 12.691152189419507 -12.66541237051921 16.314595495115984 10.983250669617503 21.924327533317403 3.3615695698692227 10.949837292770923 -2.5857802695213787 -9.48504091413705 9.129045924474108e-7 -1.1793015526099055 0.000002184693913265574
0.05330139398574829 -0.2505233758251961 0.05727424845099449 -7.397764518608987 -5.075432106525872 -6.392703839448094 0.5983510283907973 2.896033430299427 -0.15990540307988127 0.2973149753827091 1.7639925180671732 -0.3339275397566869 -4.743440609718496 1.9520926707626154 -4.423740117367855 -20.27383222194456 -3.0960357225289936 -1.9742130001656937 0 0 0 0 0 0 0 0 0 -2.3886156400604066 11.900186167241868 0.7971525150171609 -42.60561699124765 -8.777281845688204 72.0903595978651 7.40141774625712 0.006174583986254038 -0.09534128595764725 17.605673913687873 27.129482506425067 -32.592130152188005 -27.338827955928732 2.34658859168479 5.71382417066456 -0.18530181476453364 -0.038439557145461795 5.2389459086072465 3.136960533042315 0.5326281707441309 -12.057702020179633 -18.32896102208853 -0.056915969044256616 0.7458847678755981 -0.3642468097314152 0.0019128352484440662 0.004690349756261307 1.8748796284286309 -0.028554757600687108 -0.4090100971693867 -9.304083668826912 -0.5847498496242476 -10.260082172083264 -0.7172757726946531 0.03427480510395363 0.008740637598195598 0.045988117743662876 -0.0012553588791335316 -2.3128760035360147 2.093583920825546 1.462821193365082 -9.699869247019024 -0.9559282058515977 0.021554059821692978 2.2162075959412912 1.5970731575556174 0.03689662775063961 -4.378405937511415 17.372103319256748 8.268941189513932 -6.702556872949688 -5.909462319651891 -8.66812969281437 6.6182089110532525 5.1919561118555855 -1.7735545364454652 3.6747867730381927 -10.477522589923593 6.102248245571112 -10.171645245550089 -32.50693475728612 16.889940395948333 -65.64786552459063 -2.3304665630403543 0.0006146891984619199 0.03009682252079177 -34.344591869001796 8.555557417959992 49.593543620124635 27.631443935470895 2.3759218400377655 -5.706811402911798 0.2566232270964158 -0.004971625667487621 -5.239916478598472 -0.3514297990246092 -0.0005154572928572572 13.667174143681457 18.3475545174374 -0.05663309635410138 -0.7461389486663556 0.33883908770784565 0.0019096340141505049 -0.004365772365421629 0.08873554696700191 0.054304024100895826 -1.1337847178474707 9.244030063353746 -0.5738350763328037 10.261550426555122 0.8170747621815937 0.034298627393981436 -0.010125687947385791 -0.23794727034400995 0.014045959001122118 5.948037751587377 -2.1170812863749955 1.4668341737043888 9.69980986379529 0.9972208817303944 0.0222380692994782 -2.216733706251868 -0.9260051738570331 0.060400741389706476 8.046900654462473 -17.476191710660252 8.237490290547122 6.66553903710092 6.0190753081130035 -8.617595565205654 -6.5919283556741854 -4.227702078463946 -1.5694869829481155 -2.923916435666775 -7.5878918092351695 3.4612240219059127 10.800070537471724 5.275678994140815 12.79254671671634 2.801876425990297 0.49816590148153944 -7.494166255953566 -7.651303256408665 0.000005557954080689505 -3.1319098334928173 0.0000017785625279117074 12.619417680351747 -12.839694460151733 16.319146081980037 10.961780783378767 21.63107298008184 3.469120875307676 10.052022903672613 -2.2979089132862844 -9.486883541864225 8.8667718165758e-7 -1.1001521695299907 -0.000002912642044340226
-0.011222473345696926 -0.25141124661377034 0.05147610232234001 -5.400406727362414 -4.9620208357916535 -6.347533210295392 0.8874949216435034 2.886495523082167 -0.11205513004449971 0.5315658546147575 1.764775799860474 -0.3072905358277939 -4.757025107867992 1.91391195719587 -4.092112119556058 -20.893208848271605 -3.100787515887564 -2.2615166548550714 0 0 0 0 0 0 0 0 0 -2.20062542632062 11.803288469047812 1.4468374161643074 -48.44206599704887 -10.771014474410643 72.4547349828678 6.662847995333831 0.004993572819611898 -0.08588370534708145 16.036521268319735 25.45289422664044 -34.202536935618774 -27.338827955928732 2.3465868827044036 5.713831397744538 -0.18529731913504655 -0.038437265963325196 5.238934544082496 3.1369647956980926 0.5326256093125169 -12.05771454478232 -18.328956159333032 -0.056919917749318934 0.7458801258724442 -0.3642332029888949 0.0019264141264265556 0.004658069775530559 1.8748732285533047 -0.02856846800653021 -0.4089952365482434 -9.304078613314152 -0.5847480886243916 -10.26007713109305 -0.7172724645803538 0.03427901060692465 0.008766396720170112 0.04598888814070976 -0.0012539671197005753 -2.3128853873955357 2.093582427232228 1.462822581199552 -9.699870088861347 -0.9559454923626808 0.02155130173241405 2.216211221765398 1.5970755045216067 0.03689473343996923 -4.378399552895177 17.372106612814733 8.268937738542705 -6.702559871911789 -5.909479856296173 -8.66813314736732 6.618233329928049 5.191970148045869 -1.7735479165284596 3.674772707999428 -10.30686350617836 6.1195999013905436 -10.095968688598274 -33.17346671555156 17.681728039227846 -66.13246487275632 -2.0177455941672555 0.00046123234849714494 0.02607192893546113 -35.48810566691474 8.614946287582816 48.306480886862964 27.631445449572645 2.3759164993613195 -5.706765148282508 0.2566293635328412 -0.004973141449220756 -5.239880032965822 -0.3514322268978043 -0.0005108894683630874 13.667185735389111 18.347548034460708 -0.056636564811233726 -0.7461008522285184 0.3388336449961483 0.0019274073469897125 -0.004366810817638652 0.08875851879739623 0.0542960066291485 -1.1337728740521542 9.244022478801327 -0.5738265915316637 10.261561348628469 0.8170751890250885 0.0342927310186807 -0.010091250181865404 -0.23794932471916905 0.014043386007419495 5.948036902410192 -2.1171036899771773 1.4668548845021254 9.699830643635869 0.9971982601541287 0.022233316848159733 -2.216710671612315 -0.9259979177249467 0.06040564392079018 8.046908262771728 -17.47620755832085 8.237482526480116 6.665537751836413 6.019098065302549 -8.617576567712034 -6.5919044016668 -4.227719539749658 -1.5695027836883888 -2.9239219800507223 -7.390101666148718 3.7397792483129093 11.301298693448281 4.945955408522804 12.025288989243023 2.7202990719618465 -1.3684847137450957 -7.417241457711994 -7.810350957590882 0.0000024682854373980074 -3.1372951707501886 6.619788881355329e-7 12.49387455832528 -13.177818295190951 16.262478521616195 10.91107250600647 21.022970747112776 3.6592184299149553 8.14641571690688 -1.7282095099322006 -9.442387702767007 0.000029986323868683493 -0.9433791536737167 -0.0000023800832274226763
-0.06779399514198303 -0.2516067498486336 0.04653770104050636 -3.2047118199793516 -4.898007545321905 -6.270456856293951 1.1762041665167722 2.930544875655851 -0.04264692067082982 0.7663882423141951 1.8080769804108705 -0.2730185951104304 -4.7933985561075705 1.8374213012899927 -3.706066279027891 -21.509464803880018 -3.13102763525062 -2.3793692702566624 0 0 0 0 0 0 0 0 0 -2.00887850615001 11.687785082152548 2.1483838310006473 -54.595254307150086 -13.425979008410735 73.1378412645682 5.89880829293675 0.003919050741147193 -0.07607638450282082 14.777097343910375 23.500183371030378 -35.537683419701686 -27.338832561828674 2.3465877371945965 5.713821194808046 -0.18531383423683065 -0.03843924698543456 5.238952285161746 3.1369592542455744 0.532632653249458 -12.057713709808842 -18.32896533787882 -0.05691693621019247 0.7458672669900928 -0.36424640953310633 0.0019149184061162828 0.004741128860667791 1.874867255336291 -0.02856643362376088 -0.4090138056547262 -9.30407608555772 -0.5847488357152396 -10.260085532743314 -0.7172785472421261 0.03427845031786902 0.008793690800663341 0.04597932654619168 -0.0012452621094686265 -2.3128796291181173 2.0935930957558626 1.4628161758096974 -9.699876823599789 -0.9559356753317167 0.021554316620815684 2.2162007708605715 1.5970508613784524 0.03690052309370841 -4.378392742637736 17.37211423030863 8.268946365970827 -6.702564558924051 -5.90948071534487 -8.668131420090841 6.618226926598195 5.191956962533801 -1.7735549635368857 3.67478933031792 -10.126662513233967 6.137514995267061 -10.016872787150218 -33.54907358043367 18.33861370874048 -66.42180943888654 -1.5686876876868456 0.00027496709402645 0.02026575192950961 -36.60020946275819 8.557553560733428 47.03343607636158 27.631460732832934 2.3759263262059958 -5.706785469581961 0.25660780596485117 -0.004968203485901466 -5.239928806581654 -0.3514217683671086 -0.0005234650163955402 13.66716006317769 18.347542097223307 -0.05662461864445762 -0.7461280106135427 0.338825347528794 0.0019164189716638414 -0.004355876845439366 0.08874220372854187 0.0543061018400385 -1.1337836508388874 9.244019950617112 -0.5738293664351798 10.26154477719624 0.8170730548076134 0.03429695319692202 -0.010111299691537722 -0.2379403601730155 0.01404739640914006 5.948033930290022 -2.1170977156833253 1.4668451696433695 9.699795818706942 0.9971990070929726 0.022236031581754963 -2.2167328531170822 -0.9259904481771798 0.06039349097979168 8.046909953507079 -17.476182445836773 8.237492015895368 6.665540750786922 6.019067217061876 -8.617592974638287 -6.591932215835722 -4.227705059659125 -1.5694806840043913 -2.9239100383006127 -7.286877908217829 4.067797758688615 11.65943016958377 3.5541837818199533 11.255368521497667 2.4928623654080044 -2.2663214567476127 -7.33919122783512 -7.941324929360728 -0.0000014705029468117352 -3.1392335825811264 0.0000017219619254623153 12.4110763587219 -13.488743719036833 16.096557797167204 10.806212639709274 20.373970284237092 3.817561490383089 6.082297138659279 -1.1558237724005251 -9.333270350269341 -8.431738125039614e-7 -0.8084611442109826 -2.3746392662504055e-7
